<?xml version="1.0" encoding="utf-8"?>
<!-- Generator: Adobe Illustrator 19.0.0, SVG Export Plug-In . SVG Version: 6.00 Build 0)  -->
<svg version="1.1" id="Capa_1" xmlns="http://www.w3.org/2000/svg" xmlns:xlink="http://www.w3.org/1999/xlink" x="0px" y="0px"
	 viewBox="-179 200.4 600 161.6" style="enable-background:new -179 200.4 600 161.6;" xml:space="preserve">
<style type="text/css">
	.st0{display:none;}
	.st1{display:inline;fill:#1D1D1B;}
</style>
<g id="Capa_2" class="st0">
	<rect x="-226.3" y="162" class="st1" width="676.8" height="245.2"/>
</g>
<g id="Capa_1_1_">
	<g>
		<path d="M-77.6,280.1c0.1,0.3,0.3,0.3,0.5,0.5c7.9,4.4,12.5,11.2,14.6,19.8c1.6,6.9,1.8,13.9,1.5,20.9c-0.2,4.4-0.8,8.8-1.9,13.1
			c-3.1,11.5-10.4,19.1-21.7,22.9c-4.9,1.7-10,2.6-15.2,3.1c-4.8,0.5-9.6,0.5-14.5,0.5c-16.6,0-33.2,0-49.7,0
			c-2.3,0-4.6-0.1-6.9-0.5c-0.7-0.1-1.4-0.3-2.1-0.6c-2.4-0.8-3.9-2.4-4.8-4.7c-0.8-2.2-0.9-4.4-1.1-6.7c0-0.7,0-1.5,0-2.2
			c-0.1-41.8-0.1-83.6-0.1-125.4c0-2.3,0.1-4.5,0.5-6.8c0.1-0.8,0.4-1.5,0.6-2.3c0.9-2.3,2.5-3.8,4.8-4.6c2-0.7,4.2-0.9,6.3-1
			c1.1-0.1,2.1-0.1,3.2-0.1c16.3,0,32.6,0,48.9,0c7.2,0,14.3,0.6,21.3,2.3c2.7,0.6,5.3,1.5,7.8,2.5c10,4.2,16.3,11.6,19,22
			c1.8,6.9,2,13.9,1.5,20.9c-0.2,3.9-0.9,7.7-2.1,11.5c-1.8,5.7-5,10.5-9.7,14.3C-77.2,279.7-77.5,279.8-77.6,280.1z M-126.4,295
			L-126.4,295c-6.3,0-12.5,0-18.8,0c-1.2,0-1.2,0-1.2,1.2c0,0.1,0,0.3,0,0.4c0,11.9,0,23.8,0,35.7c0,0.3,0,0.6,0,0.8
			c0,0.5,0.2,0.8,0.7,0.8c0.4,0,0.7,0,1.1,0c10.5,0,21,0,31.5,0c1.9,0,3.7-0.1,5.6-0.2c2-0.2,4-0.5,6-1.2c3.1-1.1,5.2-3.2,6.2-6.4
			c0.4-1.2,0.7-2.4,0.8-3.7c0.6-4.6,0.5-9.3,0.2-13.9c-0.1-1.4-0.3-2.9-0.6-4.3c-1-4.4-3.6-7.1-8-8.1c-2.9-0.7-5.9-0.9-8.8-1
			C-116.7,294.9-121.6,295-126.4,295z M-128.7,233.1L-128.7,233.1c-5.6,0-11.1,0-16.7,0c-1.1,0-1.1,0-1.1,1.1c0,1.3,0,2.7,0,4
			c0,9.4,0,18.9,0,28.3c0,1.4,0,1.4,1.1,1.4c10.2,0,20.3,0,30.5,0c3,0,5.9-0.3,8.8-1.2c3.9-1.2,6.2-3.7,7.1-7.6
			c0.9-4.1,0.9-8.2,0.7-12.3c-0.1-1.8-0.3-3.5-0.7-5.2c-0.8-3.1-2.6-5.3-5.6-6.5c-0.8-0.3-1.6-0.6-2.4-0.8c-2.8-0.8-5.7-1-8.6-1
			C-119.9,233.1-124.3,233.1-128.7,233.1z"/>
		<path d="M276.9,280.1c0.3,0.2,0.5,0.3,0.7,0.5c7.6,4.2,12.2,10.8,14.4,19.1c1.2,4.8,1.7,9.7,1.8,14.6c0.1,5.6-0.1,11.2-1.2,16.8
			c-1.1,5.2-2.8,10.1-5.9,14.4c-3.8,5.4-9,8.9-15.1,11.2c-4.5,1.7-9.2,2.7-14,3.4c-5.3,0.7-10.6,0.9-16,0.8c-17,0-33.9,0-50.9,0
			c-2.2,0-4.4-0.1-6.5-0.5c-5.2-0.9-7.4-3.3-8.1-8.5c-0.2-1.8-0.3-3.5-0.3-5.3c0-42.1,0-84.2,0-126.4c0-2.3,0.1-4.5,0.6-6.8
			c0.8-3.9,3.1-6.2,7-7c2.2-0.4,4.4-0.6,6.6-0.6c17.8,0,35.6-0.1,53.4,0.1c7.4,0.1,14.7,1,21.8,3.3c5,1.6,9.6,3.9,13.5,7.5
			c4.9,4.4,7.8,10,9.4,16.3c1.5,6.2,1.9,12.5,1.6,18.8c-0.2,4.1-0.7,8.1-1.8,12.1c-1.8,6.3-5.1,11.6-10.3,15.7
			C277.3,279.8,277.2,279.9,276.9,280.1z M228.2,295L228.2,295c-6.3,0-12.5,0-18.8,0c-1.2,0-1.2,0-1.2,1.2c0,0.1,0,0.3,0,0.4
			c0,11.9,0,23.8,0,35.7c0,0.3,0,0.6,0,0.8c0,0.5,0.2,0.8,0.7,0.8c0.4,0,0.7,0,1.1,0c10.4,0,20.9,0,31.3,0c1.9,0,3.8-0.1,5.7-0.2
			c2.1-0.2,4.2-0.5,6.3-1.3c3-1.1,5-3.2,6-6.2c0.3-0.8,0.5-1.7,0.7-2.6c0.7-3.5,0.6-7,0.6-10.5c0-3-0.2-6-0.8-9c-1-4.3-3.6-7-7.9-8
			c-2.9-0.7-5.9-0.9-8.8-1C238,294.9,233.1,295,228.2,295z M226.1,233.1L226.1,233.1c-5.6,0-11.1,0-16.7,0c-1.2,0-1.2,0-1.2,1.1
			c0,10.9,0,21.7,0,32.6c0,1.1,0,1.1,1.1,1.1c10.2,0,20.4,0,30.6,0c2.8,0,5.6-0.3,8.4-1.1c4-1.1,6.5-3.6,7.4-7.7
			c0.2-0.7,0.3-1.5,0.4-2.2c0.5-3.8,0.4-7.6,0.2-11.4c-0.1-1.5-0.3-3-0.8-4.5c-0.9-2.8-2.6-4.9-5.4-6c-0.8-0.3-1.6-0.6-2.4-0.8
			c-2.8-0.8-5.7-1-8.5-1C234.8,233.1,230.4,233.1,226.1,233.1z"/>
		<path d="M19.1,352.6c-4.7,2-9.3,3.9-14,5.4c-6.5,2.1-13.1,3.6-19.9,4c-3.8,0.2-7.6,0-11.4-0.8c-7.9-1.8-13.4-6.5-16.8-13.8
			c-2.1-4.4-3.3-9.1-4.2-14c-1.4-8.1-1.8-16.2-1.9-24.4c-0.1-6.4,0-12.8,0.6-19.2c0.6-7.3,1.6-14.6,4.1-21.5
			c0.8-2.2,1.8-4.4,3.1-6.4c3.7-6.1,9.1-9.6,16-11c5.3-1,10.5-0.9,15.8-0.1c9.4,1.3,18.2,4.5,26.9,8c0.4,0.2,0.9,0.3,1.3,0.5
			c0.1,0,0.2,0,0.4,0.1c0.1-0.5,0.3-0.9,0.4-1.4c0.8-3.2,2.8-5.2,6-6c1.6-0.4,3.2-0.6,4.8-0.7c3.7-0.2,7.3-0.2,11,0.4
			c0.7,0.1,1.4,0.3,2,0.5c2.7,0.8,4.4,2.6,5.2,5.3c0.5,1.7,0.7,3.5,0.8,5.2c0.1,1.2,0.1,2.4,0.1,3.6c0,26.4,0,52.9,0,79.3
			c0,2.5-0.1,5-0.6,7.5c-0.8,3.9-3.1,6.2-7,7c-2,0.4-4,0.6-6.1,0.6c-3.1,0-6.1,0.1-9.2-0.6c-0.7-0.1-1.4-0.3-2-0.6
			c-2.4-0.8-4-2.5-4.8-4.9C19.5,354,19.3,353.4,19.1,352.6z M18.6,306.2c0-6.6,0-13.3,0-19.9c0-0.7-0.1-1.2-0.9-1.5
			c-5.5-2.4-11-4.8-16.7-6.5c-3.8-1.1-7.6-2-11.6-1.8c-1.9,0.1-3.4,0.9-4.4,2.5c-0.8,1.2-1.2,2.6-1.6,4c-0.8,3-1.2,6-1.4,9.1
			c-0.6,10.2-0.7,20.4,0.2,30.6c0.3,2.8,0.7,5.6,1.7,8.3c1.3,3.5,3,4.7,6.7,4.5c2.7-0.1,5.3-0.5,7.8-1.2c6.5-1.7,12.6-4.2,18.8-6.8
			c0.9-0.4,1.2-0.8,1.2-1.8C18.6,319.2,18.6,312.7,18.6,306.2z"/>
		<path d="M94.3,259.4c3.3-1.4,6.7-2.7,10.1-4c6-2.1,12-3.9,18.3-4.7c5.6-0.7,11.1-0.9,16.6,0.3c6.3,1.4,11.1,4.9,14.6,10.3
			c2.6,4,4.1,8.5,5.4,13.1c1.6,5.7,1.9,11.5,1.9,17.4c0.1,18.5,0,37.1,0,55.6c0,2.2-0.2,4.4-0.7,6.6c-0.8,3.2-2.8,5.2-5.9,6
			c-1.4,0.4-2.9,0.6-4.4,0.7c-4.1,0.2-8.2,0.3-12.2-0.4c-0.9-0.2-1.7-0.4-2.5-0.7c-2.1-0.8-3.6-2.3-4.3-4.4c-0.6-1.7-0.9-3.4-1-5.2
			c-0.1-1.3-0.1-2.6-0.1-3.9c0-18.5,0-37,0-55.5c0-2.9-0.2-5.8-0.8-8.6c-0.2-0.8-0.4-1.5-0.7-2.2c-1.1-2.3-2.8-3.4-5.4-3.4
			c-3.7,0-7.3,0.8-10.8,1.8c-5.8,1.7-11.4,4.1-17,6.6c-0.6,0.3-0.9,0.6-0.8,1.2c0,0.3,0,0.6,0,1c0,19.6,0,39.2,0,58.8
			c0,2.6,0,5.2-0.6,7.8c-0.8,3.5-2.8,5.8-6.3,6.6c-1.3,0.3-2.6,0.5-3.8,0.6c-4,0.2-8,0.3-11.9-0.4c-0.7-0.1-1.4-0.3-2.1-0.6
			c-2.3-0.8-3.9-2.5-4.7-4.8c-0.5-1.5-0.8-3.2-0.9-4.8c-0.1-1.8-0.1-3.5-0.1-5.3c0-26,0-51.9,0-77.9c0-2.9,0-5.8,0.6-8.7
			c0.8-3.5,2.9-5.6,6.4-6.4c3.8-0.8,7.7-0.8,11.6-0.6c1.7,0.1,3.4,0.3,5.1,0.7c3.3,0.8,5.3,2.9,6.2,6.1c0.1,0.4,0.2,0.7,0.3,1.1
			C94.1,259.2,94.2,259.3,94.3,259.4z"/>
		<path d="M390.7,313.9c0,11.1,0,22.1,0,33.2c0,1.8-0.1,3.5-0.3,5.3c-0.7,4.8-2.8,7.2-7.5,8.1c-4.9,0.9-9.9,0.9-14.8,0.1
			c-5-0.9-7.1-3.3-7.8-8.4c-0.2-1.8-0.3-3.6-0.3-5.4c0-22.8,0-45.5,0-68.3c0-2,0.3-1.9-1.8-1.9c-2,0-4.1-0.2-6.1-0.6
			c-3.7-0.7-6-2.9-6.9-6.6c-0.8-3.5-0.8-7.1-0.1-10.6c0.9-4.2,3.2-6.3,7.6-7c2.1-0.3,4.2-0.4,6.2-0.4c1.1,0,1.1,0,1.1-1.1
			c0.2-4.8,0.4-9.6,1.1-14.4c0.6-5,1.6-9.9,3.3-14.6c2-5.5,5.7-9.3,11-11.6c4.2-1.8,8.5-2.9,13-3.3c5.6-0.5,11.1-0.4,16.7-0.2
			c2.3,0.1,4.5,0.4,6.7,1c6,1.6,8.8,5.1,9.1,11.3c0.1,1.6,0,3.2-0.3,4.7c-0.9,4.1-3.3,7-7.2,8.6c-3.3,1.4-6.7,1.8-10.2,1.9
			c-2.1,0-4.2-0.1-6.2,0.3c-3.7,0.7-5.5,2.5-6,6.3c-0.5,3.5-0.2,7-0.2,10.4c0,0.4,0.2,0.7,0.6,0.7c0.4,0,0.7,0,1.1,0
			c4,0,8.1,0,12.1,0.2c1.5,0.1,3,0.3,4.4,0.7c2.9,0.8,4.8,2.7,5.6,5.6c0.8,3,0.9,6,0.6,9.1c-0.1,1.2-0.3,2.3-0.7,3.4
			c-0.9,2.8-2.7,4.6-5.5,5.4c-1.8,0.5-3.7,0.8-5.6,0.8c-3.9,0.1-7.7,0-11.6,0.1c-1.3,0-1.3,0-1.3,1.3
			C390.7,289.9,390.7,301.9,390.7,313.9z"/>
		<path d="M336.4,306.1c0,13.6,0,27.1,0,40.7c0,2.4-0.1,4.7-0.6,7.1c-0.8,3.4-2.8,5.5-6.2,6.4c-1.3,0.3-2.6,0.5-4,0.6
			c-4,0.3-8.1,0.3-12.1-0.4c-0.9-0.2-1.7-0.4-2.5-0.7c-2-0.8-3.4-2.3-4.2-4.4c-0.7-2-1-4.1-1.1-6.1c-0.1-1.1-0.1-2.2-0.1-3.3
			c0-26.4,0-52.8,0-79.3c0-2.6,0.1-5.1,0.5-7.6c0.7-3.8,2.9-6.2,6.8-7c1.4-0.3,2.8-0.5,4.3-0.6c3.7-0.2,7.4-0.2,11.1,0.4
			c0.7,0.1,1.4,0.3,2.2,0.5c2.6,0.8,4.2,2.6,5,5.1c0.8,2.6,0.9,5.3,0.9,8C336.4,278.9,336.4,292.5,336.4,306.1z"/>
		<path d="M300.6,220.5c-0.3-10.6,9.5-21.8,22.7-19.9c4.6,0.7,8.7,2.4,12,5.7c3.1,3.1,5,6.9,5.7,11.2c1.2,7.6-0.7,14.5-6,20.2
			c-3.8,4.1-8.5,6.4-14.1,6.7c-5,0.2-9.2-1.9-12.7-5.4c-4-4.2-6.3-9.2-7.3-14.9C300.7,222.8,300.6,221.6,300.6,220.5z M308.4,219.3
			c0,3.5,1.5,7.2,4,9.5c2.3,2.1,4.9,2.8,7.9,1.9c7.2-2.2,9.5-10.3,6.5-15.9c-2.1-3.8-6.8-5.8-11.1-4.7
			C311.4,211.2,308.4,215,308.4,219.3z"/>
		<path d="M308.4,219.3c0-4.3,3-8.2,7.3-9.3c4.3-1.1,9,0.9,11.1,4.7c3.1,5.6,0.7,13.7-6.5,15.9c-3,0.9-5.6,0.2-7.9-1.9
			C309.9,226.5,308.4,222.9,308.4,219.3z"/>
	</g>
</g>
</svg>
