<?xml version="1.0" encoding="utf-8"?>
<!-- Generator: Adobe Illustrator 19.0.0, SVG Export Plug-In . SVG Version: 6.00 Build 0)  -->
<svg version="1.1" id="Capa_1" xmlns="http://www.w3.org/2000/svg" xmlns:xlink="http://www.w3.org/1999/xlink" x="0px" y="0px"
	 viewBox="1020 -192.4 3000 944.4" style="enable-background:new 1020 -192.4 3000 944.4;" xml:space="preserve">
<style type="text/css">
	.st0{display:none;}
	.st1{display:inline;}
</style>
<g id="Capa_2" class="st0">
	<rect x="889.2" y="-386.9" class="st1" width="3422.2" height="1505.6"/>
</g>
<g id="Layer_1">
	<g>
		<path d="M2598.2-26c-17.6,0-35.1,0-52.7,0c-1.7,0-3.4-0.1-5.1,0.1c-5.1,0.6-8.8,4.5-8.5,9.6c0.1,2.5,1.1,5.2,2.3,7.4
			c12.4,23.5,25,47,37.5,70.4c105,196.6,210,393.1,315,589.7c3.7,7,7.3,14.1,11.3,20.9c3.7,6.5,11.1,8.7,17.6,5.6
			c3.4-1.7,5.3-4.6,7-7.8c18.9-35.5,37.9-70.9,56.8-106.4c91-170.3,181.9-340.5,272.9-510.8c11.2-21,22.3-42,33.7-62.9
			c4.8-8.8-1.7-16-9-16c-37.2,0.3-74.4,0.1-111.6,0.1c-5.6,0-9.7,2.5-12.4,7.4c-1.2,2.1-2.3,4.3-3.4,6.5
			c-75.5,143.7-150.9,287.3-226.4,431c-1,1.8-1.9,3.8-3.1,5.4c-5.5,7.2-16,7.1-21.5-0.1c-1.1-1.5-2-3.2-2.9-4.9
			c-12.2-23.2-24.4-46.4-36.6-69.6c-64.2-122.1-128.4-244.2-192.5-366.3c-3.4-6.4-8-9.4-15.3-9.3C2633.7-25.9,2616-26,2598.2-26z"/>
		<path d="M3825,576.8c17.4,0,34.7,0,52.1,0c1.7,0,3.4,0.1,5.1-0.1c6.7-0.7,10.6-6.8,8.3-13.1c-0.7-1.9-1.8-3.8-2.7-5.6
			c-47.1-88.2-94.3-176.4-141.4-264.6c-73.3-137.1-146.5-274.3-219.8-411.4c-0.8-1.5-1.5-3-2.5-4.4c-5.3-7.6-16.3-7.8-21.7-0.2
			c-1.1,1.5-1.9,3.3-2.8,4.9c-49.7,93-99.4,186.1-149.2,279.1c-70.7,132.3-141.4,264.6-212.1,396.9c-0.8,1.5-1.7,3-2.3,4.5
			c-2.8,6.7,1.1,13.3,8.3,14c1.7,0.2,3.4,0.1,5.1,0.1c21.3,0,42.7,0,64,0c13.8,0,27.6-0.3,41.3,0.1c8,0.2,13.4-2.9,16.5-10.2
			c0.1-0.2,0.2-0.3,0.3-0.5c61.3-116.8,122.7-233.5,184-350.3c15-28.6,30.1-57.1,45-85.7c2.8-5.3,6.6-8.8,12.7-8.9
			c6.4-0.1,10.5,3.5,13.2,9c2,4.1,4.2,8,6.3,12c74.4,141.5,148.8,282.9,223,424.4c3.7,7,8.6,10.3,16.6,10.1
			C3789.8,576.5,3807.4,576.8,3825,576.8z"/>
		<path d="M1685.4,299.3c1.6,0.7,2.6,1.2,3.6,1.6c48.1,18.8,79.7,53.2,96.1,101.8c9,26.5,11.2,53.8,9.6,81.6c-1.2,20-4.1,39.8-10,59
			c-15.4,50-47.3,85.6-94.3,107.9c-22.6,10.8-46.6,17.4-71.2,21.7c-26.1,4.6-52.4,6.1-78.9,6.1c-108.4,0-216.7,0-325.1,0
			c-2.3,0-4.5,0.1-6.8-0.1c-7.2-0.5-11.8-5-12.5-12.2c-0.2-1.7-0.1-3.4-0.1-5.1c0-223.4,0-446.7,0-670.1c0-0.2,0-0.4,0-0.6
			c-0.9-11.4,5.5-17.2,17-17.2c115.2,0.2,230.3,0.1,345.5,0.2c36.5,0,71.7,6.7,104.6,22.9c45.4,22.3,77.2,56.9,92,105.8
			c11.9,39.4,11.4,79-2.5,117.9c-11.8,33-32.5,58.9-63.4,76.2C1687.9,297.4,1687,298.2,1685.4,299.3z M1440.3,577
			c31.7,0,63.4,0,95.1,0c16.3,0,32.4-1,48.5-3.6c16.1-2.7,31.6-7,46.2-14.6c24.1-12.6,39.7-32,45.6-58.7c5.2-23.3,4.3-46.5-1.8-69.5
			c-6.4-24-21.3-41.4-43.9-51.7c-7.5-3.4-15.4-6.2-23.4-8.3c-23.7-6.3-48-7.9-72.4-7.9c-67.9-0.1-135.9,0-203.8,0c-1.3,0-2.6,0-4,0
			c-8.5,0.3-13.7,5.2-14.4,13.6c-0.1,1.5-0.1,3-0.1,4.5c0,59.6,0,119.3,0,178.9c0,2.3,0.1,4.6,0.5,6.8c1.2,5.8,5.8,10,11.7,10.6
			c1.9,0.2,3.8,0.1,5.7,0.1C1366.7,577,1403.5,577,1440.3,577z M1438.6,75.7C1438.6,75.7,1438.6,75.7,1438.6,75.7
			c-36-0.1-72.1,0.2-108.1-0.2c-12.9-0.2-18.5,5.9-18.4,18.3c0.4,49.6,0.2,99.3,0.2,148.9c0,1.9,0,3.8,0.1,5.7
			c0.7,6.6,5.5,11.4,12.1,12.2c1.3,0.2,2.6,0.1,4,0.1c67.2,0,134.4,0.1,201.6,0c19.5,0,38.8-2.4,57.3-9.1
			c22.8-8.3,40.5-22.6,50.1-45.3c10.2-24.2,11.9-49.4,6.1-74.9c-4-17.6-14.4-31-30.2-39.8c-4.8-2.6-9.8-4.9-14.9-6.8
			c-18.7-6.7-38.2-8.8-57.9-9C1506.6,75.6,1472.6,75.7,1438.6,75.7z"/>
		<path d="M2415,299.3c1.5,0.6,2.2,1,3.1,1.3c49.6,19.3,81.6,55,97.7,105.3c7.6,23.6,9.8,48,8.8,72.7c-0.8,22-3.7,43.6-10.3,64.7
			c-15.1,48.9-46,84.2-91.7,106.7c-23.4,11.5-48.2,18.5-73.7,23c-25.7,4.5-51.7,6.1-77.8,6.1c-108.9,0-217.9,0-326.8,0
			c-2.5,0-4.9,0.1-7.4-0.2c-6-0.7-10.4-5-11.2-11c-0.3-1.9-0.2-3.8-0.2-5.7c0-223.7,0-447.5,0-671.2c0-1.7,0-3.4,0.1-5.1
			c0.7-6.8,5.5-11.4,12.3-11.8c1.5-0.1,3-0.1,4.5-0.1c115.2,0,230.3,0,345.5,0c34.8,0,68.4,6.1,100.1,20.7
			c42,19.3,73.2,49.4,91.1,92.5c10.1,24.2,14,49.6,13.4,75.8c-0.5,23.1-4.7,45.4-14,66.6c-12.6,28.9-32.1,51.8-59.9,67.2
			C2417.6,297.4,2416.6,298.2,2415,299.3z M2170,577c29.8,0,59.6-0.1,89.5,0c15.5,0,30.9-0.4,46.3-2.5c17.3-2.4,34.1-6.3,49.9-13.8
			c25.3-12,42.4-31.1,49.1-58.6c6-24.9,5.1-49.9-2.2-74.4c-6.4-21.5-19.9-37.6-40.1-47.4c-8.4-4.1-17.4-7.4-26.4-9.8
			c-23.3-6.3-47.2-7.9-71.2-7.9c-68.7-0.2-137.4,0.1-206.1-0.2c-9.4,0-18.1,4.5-17.2,17.3c0,0.4,0,0.8,0,1.1c0,59.5,0,118.9,0,178.4
			c0,2.3,0,4.6,0.4,6.8c1,6.1,5.8,10.5,11.9,11c1.9,0.2,3.8,0.1,5.7,0.1C2096.4,577,2133.2,577,2170,577z M2168.2,75.7
			C2168.2,75.7,2168.2,75.7,2168.2,75.7c-36.1-0.1-72.1-0.1-108.1-0.1c-1.7,0-3.4-0.1-5.1,0c-7.4,0.4-12.6,5.6-13,13
			c-0.1,1.7,0,3.4,0,5.1c0,49.6,0,99.3,0,148.9c0,1.7-0.1,3.4,0.1,5.1c0.5,6.9,5.3,12,12.2,12.7c2.1,0.2,4.1,0.1,6.2,0.1
			c61.7,0,123.4,0.1,185.2,0c10.9,0,21.9-0.4,32.8-1c13.4-0.8,26.5-3.6,39.2-8.2c25.1-9.3,43.2-25.8,52.1-51.5
			c7.2-20.7,8.5-42.1,4.8-63.7c-2.8-16.4-10.7-30.1-24.3-40.2c-6.7-5-14.1-8.7-22-11.4c-18.7-6.6-38.2-8.7-57.9-8.9
			C2236.2,75.5,2202.2,75.7,2168.2,75.7z"/>
		<path d="M2598.2-26c17.8,0,35.5,0.2,53.2-0.1c7.3-0.1,11.9,2.9,15.3,9.3c64.1,122.1,128.3,244.2,192.5,366.3
			c12.2,23.2,24.4,46.4,36.6,69.6c0.9,1.7,1.7,3.4,2.9,4.9c5.4,7.2,16,7.3,21.5,0.1c1.3-1.6,2.1-3.6,3.1-5.4
			c75.5-143.6,150.9-287.3,226.4-431c1.1-2.2,2.3-4.4,3.4-6.5c2.7-4.9,6.8-7.4,12.4-7.4c37.2,0,74.4,0.2,111.6-0.1
			c7.2-0.1,13.7,7.2,9,16c-11.3,20.9-22.5,41.9-33.7,62.9c-91,170.3-181.9,340.5-272.9,510.8c-18.9,35.4-37.9,70.9-56.8,106.4
			c-1.7,3.2-3.6,6.2-7,7.8c-6.4,3.1-13.8,0.9-17.6-5.6c-3.9-6.9-7.5-13.9-11.3-20.9c-105-196.6-210-393.1-315-589.7
			c-12.5-23.5-25.1-46.9-37.5-70.4c-1.2-2.3-2.2-4.9-2.3-7.4c-0.3-5.1,3.4-9,8.5-9.6c1.7-0.2,3.4-0.1,5.1-0.1
			C2563.1-26,2580.7-26,2598.2-26z"/>
		<path d="M3825,576.8c-17.6,0-35.1-0.2-52.7,0.1c-8,0.1-12.9-3.1-16.6-10.1c-74.3-141.5-148.7-283-223-424.4c-2.1-4-4.3-8-6.3-12
			c-2.7-5.6-6.8-9.1-13.2-9c-6.1,0.1-9.9,3.6-12.7,8.9c-14.9,28.6-30,57.1-45,85.7c-61.3,116.8-122.7,233.5-184,350.3
			c-0.1,0.2-0.2,0.3-0.3,0.5c-3.1,7.3-8.4,10.4-16.5,10.2c-13.8-0.4-27.6-0.1-41.3-0.1c-21.3,0-42.7,0-64,0c-1.7,0-3.4,0.1-5.1-0.1
			c-7.2-0.7-11.1-7.3-8.3-14c0.7-1.6,1.5-3,2.3-4.5c70.7-132.3,141.4-264.6,212.1-396.9c49.7-93,99.4-186.1,149.2-279.1
			c0.9-1.7,1.7-3.4,2.8-4.9c5.4-7.5,16.5-7.4,21.7,0.2c1,1.4,1.7,2.9,2.5,4.4c73.3,137.1,146.5,274.3,219.8,411.4
			c47.1,88.2,94.3,176.4,141.4,264.6c1,1.8,2,3.6,2.7,5.6c2.3,6.3-1.7,12.4-8.3,13.1c-1.7,0.2-3.4,0.1-5.1,0.1
			C3859.7,576.8,3842.3,576.8,3825,576.8z"/>
	</g>
</g>
</svg>
