<?xml version="1.0" encoding="utf-8"?>
<!-- Generator: Adobe Illustrator 19.0.0, SVG Export Plug-In . SVG Version: 6.00 Build 0)  -->
<svg version="1.1" id="Capa_1" xmlns="http://www.w3.org/2000/svg" xmlns:xlink="http://www.w3.org/1999/xlink" x="0px" y="0px"
	 viewBox="-425 266.5 108.5 28.5" style="enable-background:new -425 266.5 108.5 28.5;" xml:space="preserve">
<style type="text/css">
	.st0{display:none;}
	.st1{display:inline;}
	.st2{fill:#FFFFFF;}
</style>
<g id="Capa_2" class="st0">
	<rect x="-429.8" y="261.8" class="st1" width="122" height="43.8"/>
</g>
<g id="Capa_1_1_">
	<g>
		<path d="M-420.8,289.3h15.5c1.2,0,2.2-1,2.2-2.2v-15.3h-15.6c-1.2,0-2.2,1-2.2,2.2v15.3H-420.8z M-416.7,286.6l9.2-1.6v-9.7
			l-9.2,1.6V286.6L-416.7,286.6z"/>
		<path d="M-356.4,278.9c1.5,0,2.7,1.3,2.7,3.3s-1.2,3.3-2.7,3.3c-0.8,0-1.5-0.3-1.9-1c-0.5-0.5-0.7-1.2-0.7-2c0-1,0.1-1.7,0.5-2.4
			C-358,279.4-357.2,278.9-356.4,278.9L-356.4,278.9z M-358.9,274.3v4.3c1.2-1.2,2.6-1.6,4.3-1.1c1.9,0.5,3,2.3,3.1,4.8
			c0,3.2-2.2,5.2-4.8,5.2c-2.9,0-4.8-2-4.8-4.9v-8.3H-358.9L-358.9,274.3z M-363.1,276.9h0.7v2.3h-0.7l0,0l0,0
			c-0.5,0-0.9,0.2-1.3,0.5c-0.3,0.3-0.5,0.8-0.5,1.3l0,0l0,0v6.3h-2.3V281l0,0l0,0c0-1.1,0.5-2.1,1.2-2.9
			C-365.2,277.4-364.2,276.9-363.1,276.9L-363.1,276.9L-363.1,276.9L-363.1,276.9z M-372,283.4h-3.3c0,0.1,0.1,0.2,0.1,0.3
			c0.4,1,1.3,1.6,2.3,1.7l0,0l0,0c0.1,0,0.3,0,0.4,0.1c0.1,0,0.3,0,0.4,0l0,0c1.1,0,1.9-0.3,2.4-0.6c0.1,0.4,0,1.2,0,1.5
			c-0.2,1-1.9,1-2.5,1l0,0c-0.2,0-0.4,0-0.6,0c-0.2,0-0.4,0-0.6-0.1l0,0c-2.6-0.5-4.1-2.8-4-5.3l0,0l0,0l0,0c0.1-2.1,1.3-4,3.3-4.6
			l0,0l0,0l0,0c1.6-0.5,3.2,0,4.2,0.9c0.2,0.2,0.4,0.4,0.5,0.6c0.2,0.2,0.3,0.4,0.4,0.7l0,0l0,0l0,0c0.2,0.5,0.3,0.9,0.3,1.3
			c0,0.5-0.2,1-0.5,1.3c-0.3,0.3-0.6,0.6-1,0.8l0,0C-370.6,283.2-371.3,283.4-372,283.4L-372,283.4z M-375.3,281.7h3.4
			c0.8,0,1.6-0.4,1.2-1.4l0,0l0,0l0,0c0-0.1-0.1-0.2-0.2-0.3s-0.2-0.2-0.3-0.3c-0.6-0.6-1.4-0.9-2.3-0.6l0,0l0,0l0,0
			c-0.2,0.1-0.3,0.1-0.4,0.2c-0.1,0.1-0.3,0.2-0.4,0.3C-374.8,279.9-375.2,280.7-375.3,281.7L-375.3,281.7z M-381.3,274.4v2.7h3.7
			l-0.1,0.9c-0.1,0.8-0.5,1-1.4,1h-2.3v4.8l0,0c0,0.1,0,0.5,0,0.6c0.1,0.8,0.6,1,1.3,1c0.7,0.1,1.8,0,2.4-0.3c0.1,0.8,0,1.9-0.5,2.1
			c-0.5,0.2-1.4,0.3-2,0.2c-0.3,0-0.6,0-0.9-0.1c-0.5-0.1-1.3-0.5-1.7-0.9c-0.7-0.8-0.7-1.7-0.8-2.7v-0.1v-9.2H-381.3L-381.3,274.4z
			 M-390.2,276.9h0.8l0,0l0,0c1.1,0,2.2,0.5,2.9,1.2c0.7,0.7,1.2,1.8,1.2,2.9l0,0l0,0v6.3h-2.3V281l0,0l0,0c0-0.5-0.2-1-0.5-1.3
			c-0.3-0.3-0.8-0.5-1.3-0.5l0,0l0,0h-0.8l0,0l0,0c-0.5,0-0.9,0.2-1.3,0.5c-0.3,0.3-0.5,0.8-0.5,1.3l0,0l0,0v6.3h-2.3V281l0,0l0,0
			c0-1.1,0.5-2.1,1.2-2.9C-392.3,277.4-391.3,276.9-390.2,276.9L-390.2,276.9L-390.2,276.9L-390.2,276.9z M-398.6,274.2h2.3v13.1
			h-2.3V274.2L-398.6,274.2z M-336.8,276.9h0.8l0,0l0,0c1.1,0,2.1,0.5,2.9,1.2c0.7,0.7,1.2,1.8,1.2,2.9l0,0l0,0v6.3h-2.3V281l0,0
			l0,0c0-0.5-0.2-1-0.5-1.3c-0.3-0.3-0.8-0.5-1.3-0.5l0,0l0,0h-0.8l0,0l0,0c-0.5,0-1,0.2-1.3,0.5c-0.3,0.3-0.5,0.8-0.5,1.3l0,0l0,0
			v6.3h-2.3V281l0,0l0,0c0-1.1,0.5-2.1,1.2-2.9C-339,277.4-338,276.9-336.8,276.9L-336.8,276.9L-336.8,276.9L-336.8,276.9z
			 M-330.1,274.2h2.3v13.1h-2.3V274.2L-330.1,274.2z M-321.4,277.4h-2.3l-4.1,4.7l4.6,5.2h2.3l-4.6-5.2L-321.4,277.4L-321.4,277.4z
			 M-344.4,282.8L-344.4,282.8c-0.5,0-1,0-1.5,0c-0.9,0-1.4,0.1-1.9,0.3c-0.5,0.2-0.7,0.6-0.8,1l0,0v0.1l0,0
			c-0.1,0.8,0.4,1.4,1.1,1.5l0,0l0,0c0.9,0.1,1.6,0,2.1-0.3c0.4-0.2,0.7-0.7,0.8-1.3C-344.4,283.8-344.4,283.2-344.4,282.8
			L-344.4,282.8z M-347.2,277c1.1-0.1,2.5,0,3.4,0.7c0.4,0.3,0.7,0.6,0.9,1.1c0.3,0.5,0.3,1.2,0.3,1.7v3c0,1.5-0.5,2.8-2,3.5
			c-0.5,0.2-1,0.3-1.7,0.4c-2.6,0.1-4.5-1.2-4.3-3.6c0.1-1.7,1.6-2.4,3.3-2.6c0.8-0.1,2.2,0.1,2.7,0c0-0.5-0.1-1.2-0.2-1.6
			c-0.1-0.3-0.4-0.7-0.8-0.8c-0.5-0.2-1.3-0.2-1.8-0.2c-0.8,0.1-1.4,0.2-2.3,0.7v-0.9c0-0.3,0-0.6,0.2-0.8
			C-349.2,277.2-347.9,277.1-347.2,277L-347.2,277z"/>
	</g>
</g>
<polygon class="st2" points="-416.7,286.6 -407.5,285 -407.5,275.3 -416.7,276.9 -416.7,286.6 "/>
<path class="st2" d="M-356.4,278.9c1.5,0,2.7,1.3,2.7,3.3c0,2-1.2,3.3-2.7,3.3c-0.8,0-1.5-0.3-1.9-1c-0.5-0.5-0.7-1.2-0.7-2
	c0-1,0.1-1.7,0.5-2.4C-358,279.4-357.2,278.9-356.4,278.9L-356.4,278.9z"/>
</svg>
