<?xml version="1.0" encoding="utf-8"?>
<!-- Generator: Adobe Illustrator 19.0.0, SVG Export Plug-In . SVG Version: 6.00 Build 0)  -->
<svg version="1.1" id="Capa_1" xmlns="http://www.w3.org/2000/svg" xmlns:xlink="http://www.w3.org/1999/xlink" x="0px" y="0px"
	 viewBox="-79 182.1 800 197.9" style="enable-background:new -79 182.1 800 197.9;" xml:space="preserve">
<style type="text/css">
	.st0{display:none;}
	.st1{display:inline;fill:#040000;}
	.st2{fill:#FFFFFF;stroke:#FFFFFF;stroke-miterlimit:10;}
</style>
<g id="Capa_2" class="st0">
	<rect x="-120.9" y="117.1" class="st1" width="858.5" height="283.3"/>
</g>
<g id="Capa_1_1_">
	<path d="M-60,199.1H98.9v159.8H-9.2c0,0-42-0.5-50.8-47.1V199.1z"/>
	<polygon class="st2" points="19.4,227.3 73,227.3 73,279 49,279 49,249.9 19.4,249.9 	"/>
	<path d="M190.8,201.4c13.4,2.3,13.4,16.2,13.4,16.2c1.8,7.4-6.9,15.2-6.9,15.2c8.8,2.3,8.8,14.8,8.8,14.8
		c0.9,16.2-17.6,18.9-17.6,18.9h-36.9v-65.1H190.8z M165.4,213v14.3h19.4c0,0,6.8-1.5,6.5-7.2c0,0-0.6-7.2-7.1-7.2H165.4z
		 M165.4,237.9v16.6h18.8c0,0,8.6-1.1,9.2-9c0,0-0.3-7.6-8-7.6L165.4,237.9L165.4,237.9z"/>
	<path d="M237.1,201.4H251l25.6,65.1h-14.2l-5.2-13.4h-25.2l-6.2,13.4h-13.9L237.1,201.4z M244.2,220.1l-9.2,21.8h18.5L244.2,220.1z
		"/>
	<path d="M662,292.3h13.9l25.6,65.1h-14.2l-5.2-13.4h-25.2l-6.2,13.4h-13.9L662,292.3z M669.1,311l-9.2,21.8h18.5L669.1,311z"/>
	<path d="M411.7,246.2l8.3,8.3c0,0-7.4,12-26.5,12c0,0-33.3,4.5-36-32.6c0,0-2.2-33.3,36-34.9c0,0,16.6-0.6,24.9,11.1l-9.2,8.6
		c0,0-4.9-7.2-16.9-7.2c0,0-18.7-0.3-20.1,21.3c0,0-0.9,20.5,20.6,22.1C392.9,255,405.6,255.9,411.7,246.2z"/>
	<path d="M297.5,337.6l8.3,8.3c0,0-7.4,12-26.5,12c0,0-33.3,4.5-36-32.6c0,0-2.2-33.3,36-34.9c0,0,16.6-0.6,24.9,11.1l-9.2,8.6
		c0,0-4.9-7.2-16.9-7.2c0,0-18.7-0.3-20.1,21.3c0,0-0.9,20.5,20.6,22.1C278.6,346.4,291.4,347.3,297.5,337.6z"/>
	<path d="M548,337.6l8.3,8.3c0,0-7.4,12-26.5,12c0,0-33.3,4.5-36-32.6c0,0-2.2-33.3,36-34.9c0,0,16.6-0.6,24.9,11.1l-9.2,8.6
		c0,0-4.8-7.2-16.9-7.2c0,0-18.7-0.3-20.1,21.3c0,0-0.9,20.5,20.6,22.1C529.1,346.4,541.9,347.3,548,337.6z"/>
	<path d="M461.7,255.1c-12,0-21.7-9.7-21.7-21.7c0-12,9.7-21.7,21.7-21.7s21.7,9.7,21.7,21.7C483.4,245.4,473.7,255.1,461.7,255.1z
		 M496.3,233.4c0-19.1-15.5-34.7-34.7-34.7c-19.1,0-34.7,15.5-34.7,34.7s15.5,34.7,34.7,34.7S496.3,252.5,496.3,233.4z"/>
	<rect x="392.6" y="291.7" width="12.7" height="66.4"/>
	<rect x="217.1" y="291.7" width="12.7" height="66.4"/>
	<path d="M152.5,358.1v-66.4h33.3c0,0,19.6,2.5,18.7,22.2c0,0,1.6,17.1-18.2,21.9h-20.8v22.3H152.5z M165.4,304.2v20.1h16.4
		c0,0,9.5-1.8,9.5-10c0,0,0.7-9.6-8.3-10H165.4z"/>
	<path d="M318.7,291.7v66.4h13.2v-27.6h29.3v27.6h12.7v-66.4h-8.5c0,0-4.2,0.2-4.2,4.6v20.8h-29.8v-25.4L318.7,291.7L318.7,291.7z"
		/>
	<path d="M570,291.7v66.4h13.2v-27.6h29.3v27.6h12.7v-66.4h-8.5c0,0-4.2,0.2-4.2,4.6v20.8h-29.8v-25.4L570,291.7L570,291.7z"/>
	<path d="M287.1,266.5v-65.1h15c0,0,3,0.7,4.6,3.7l24.9,41.1v-44.8h12.7v65.1H331c0,0-2.3,0.2-4.4-3.2L301.4,222v44.6H287.1z"/>
	<path d="M423.2,358.1V293h15c0,0,3,0.7,4.6,3.7l24.9,41.1V293h12.7v65.1h-13.4c0,0-2.3,0.2-4.4-3.2l-25.2-41.3v44.6H423.2z"/>
</g>
</svg>
