<?xml version="1.0" encoding="utf-8"?>
<!-- Generator: Adobe Illustrator 19.0.0, SVG Export Plug-In . SVG Version: 6.00 Build 0)  -->
<svg version="1.1" id="Capa_1" xmlns="http://www.w3.org/2000/svg" xmlns:xlink="http://www.w3.org/1999/xlink" x="0px" y="0px"
	 viewBox="-426 229 107 104" style="enable-background:new -426 229 107 104;" xml:space="preserve">
<style type="text/css">
	.st0{fill:#B6E5D9;}
	.st1{fill:#060F26;}
</style>
<path class="st0" d="M-366.2,264.4c-2,0.1-4.1-0.3-6-1c-1.9-0.7-3.7-1.8-5.1-3.2c-1.5-1.4-2.6-3.1-3.4-4.9c-0.8-1.8-1.2-3.8-1.2-5.8
	c0-2,0.4-4,1.2-5.8c0.8-1.8,2-3.5,3.4-4.9c1.5-1.4,3.2-2.5,5.1-3.2c1.9-0.7,3.9-1.1,6-1c2-0.1,4.1,0.3,6,1c1.9,0.7,3.7,1.8,5.1,3.2
	c1.5,1.4,2.6,3.1,3.4,4.9c0.8,1.8,1.2,3.8,1.2,5.8c0,2-0.4,4-1.2,5.8c-0.8,1.8-2,3.5-3.4,4.9c-1.5,1.4-3.2,2.5-5.1,3.2
	C-362.2,264.1-364.2,264.5-366.2,264.4z"/>
<path class="st1" d="M-344.4,280.2c0.2,0.3,0.3,0.6,0.5,0.9c0.2,0.4,0.6,0.8,1,1.1c0.4,0.3,0.9,0.4,1.4,0.4c0.4,0,0.8-0.1,1.2-0.3
	c0.3-0.1,0.6-0.3,0.9-0.6c0.2-0.3,0.4-0.6,0.6-0.9c0.1-0.3,0.2-0.7,0.1-1c0-0.3-0.1-0.7-0.3-1c-0.2-0.4-0.4-0.8-0.6-1.2
	c-0.3-0.6-0.9-1.1-1.6-1.3c-0.3-0.1-0.7-0.1-1-0.1c-0.4,0-0.7,0.1-1,0.3c-0.6,0.3-1.1,0.9-1.3,1.6
	C-344.8,278.8-344.7,279.5-344.4,280.2L-344.4,280.2z"/>
<path class="st1" d="M-336.9,285.9c0-0.3-0.2-0.7-0.3-1c-0.2-0.3-0.4-0.6-0.7-0.8c-0.3-0.2-0.6-0.4-0.9-0.4c-0.3-0.1-0.7-0.1-1-0.1
	c-0.7,0.1-1.3,0.5-1.8,1c-0.4,0.6-0.6,1.2-0.5,1.9c0.4,2.5,0.2,5-0.5,7.4c-0.7,2.4-1.8,4.7-3.4,6.7c-0.4,0.6-0.6,1.2-0.5,1.9
	c0.1,0.7,0.5,1.3,1,1.7c0.5,0.4,1.1,0.5,1.6,0.5c0.4,0,0.8-0.1,1.2-0.3c0.4-0.2,0.7-0.4,0.9-0.8c2-2.5,3.5-5.4,4.4-8.5
	C-336.7,292.3-336.5,289.1-336.9,285.9z"/>
<path class="st1" d="M-321.2,284.3c-0.6-0.6-1.4-1.2-2.3-1.5c-0.9-0.3-1.8-0.5-2.7-0.5c-0.8,0-1.5,0.1-2.3,0.4
	c-1.2-6.6-4.7-12.5-9.8-16.9c-3.2-2.7-6.9-4.8-10.9-6.3c1.8-2.9,2.8-6.3,2.9-9.8c0-3.4-0.8-6.8-2.6-9.8c-1.7-3-4.3-5.5-7.3-7.2
	c-3-1.7-6.5-2.7-10-2.7c-3.5,0-7,0.9-10,2.6c-3,1.7-5.6,4.2-7.3,7.1c-1.7,3-2.7,6.3-2.6,9.8c0,3.4,1,6.8,2.7,9.7
	c-0.8,0.2-1.4,0.5-2,0.7l-10.9-9.2c-0.4-0.3-0.8-0.5-1.3-0.6c-0.5-0.1-1,0-1.5,0.2c-0.5,0.2-0.9,0.5-1.2,0.9
	c-0.3,0.4-0.5,0.9-0.5,1.4l-1.4,14.1c-3.1,1.6-5.7,3.9-7.9,6.6c-2.1,2.7-3.7,5.8-4.5,9.1c-1.1,3.8-1.6,3.9-3.6,4
	c-1.2,0-2.4,0.3-3.5,0.8c-1.1,0.5-2,1.3-2.8,2.3c-0.6,1-1,2.2-1.1,3.4c-0.1,1.2,0.1,2.4,0.6,3.5l2.6,7.7c1.3,3.9,3.7,4.7,5.5,4.7
	h2.2c5.6,7,10.8,8.9,17.5,10.5c-0.2,2.1-0.5,4.8-0.9,8.1h-5.2c-0.7,0-1.3,0.3-1.8,0.8c-0.5,0.5-0.7,1.1-0.7,1.8s0.3,1.3,0.7,1.8
	c0.5,0.5,1.1,0.8,1.8,0.8h23.4c0.4,0,0.7,0,1.1-0.1c0.4-0.1,0.7-0.3,0.9-0.6c0.3-0.2,0.5-0.5,0.6-0.9c0.1-0.3,0.2-0.7,0.2-1.1
	s-0.1-0.7-0.2-1.1c-0.1-0.3-0.4-0.6-0.6-0.9c-0.3-0.2-0.6-0.4-0.9-0.6c-0.4-0.1-0.7-0.2-1.1-0.1h-0.1l1.1-3.5
	c5.6,0.7,11.3,0.3,16.7-1.1v0.2c0.3,2.3,0.5,4.7,0.5,7c0,0.4,0.1,0.7,0.2,1c0.1,0.3,0.3,0.6,0.6,0.9c0.3,0.3,0.6,0.5,0.9,0.6
	c0.3,0.1,0.7,0.2,1,0.2h20.3c0.7,0,1.4-0.3,1.9-0.8c0.5-0.5,0.8-1.2,0.8-1.9c0-0.7-0.3-1.4-0.8-1.9c-0.5-0.5-1.2-0.8-1.9-0.8h-4.2
	c2.1-7.8,5.7-15.2,8.1-18.2c4.6-5.7,7-12.7,7-19.9c0-0.2,0-0.4,0.1-0.6c0.1-0.2,0.2-0.4,0.4-0.5c0.2-0.2,0.3-0.3,0.5-0.4
	c0.2-0.1,0.4-0.1,0.6-0.1c0.2,0,0.4,0,0.6,0.1c0.2,0.1,0.4,0.2,0.5,0.4c0.2,0.2,0.3,0.3,0.4,0.5c0.1,0.2,0.1,0.4,0.1,0.6
	c0,0.4-0.2,0.9-0.5,1.2c-0.5,0.5-0.8,1.2-0.8,1.9c0,0.7,0.3,1.4,0.8,1.9c0.2,0.2,0.5,0.4,0.9,0.6c0.3,0.1,0.7,0.2,1,0.2
	c0.4,0,0.7-0.1,1-0.2c0.3-0.1,0.6-0.3,0.9-0.6c1.3-1.3,2.1-3.1,2.1-4.9C-319.1,287.4-319.9,285.6-321.2,284.3L-321.2,284.3z
	 M-348.5,327.3h-8c-0.1-1.8-0.3-3.5-0.5-5.1c-0.1-1.1-0.2-2.1-0.3-3.1c0-0.4-0.1-0.8-0.3-1.1c-0.2-0.3-0.5-0.6-0.8-0.9
	c-0.3-0.2-0.7-0.4-1.1-0.4c-0.4-0.1-0.8-0.1-1.2,0c-8.1,2.2-13.9,2.6-19.7,1.4c-0.7-0.1-1.4,0-1.9,0.3c-0.6,0.3-1,0.9-1.2,1.5
	l-2.2,7.2h-7c0.5-4.3,0.9-7.6,1-10c0-0.6-0.2-1.2-0.5-1.7c-0.4-0.5-0.9-0.8-1.5-1c-7.6-1.8-12.1-2.8-17.5-10.1
	c-0.3-0.3-0.6-0.6-1-0.8c-0.4-0.2-0.8-0.3-1.2-0.3h-3.4c-0.2-0.3-0.4-0.7-0.5-1.1l-2.6-7.8c-0.3-0.3-0.5-0.7-0.5-1.2
	c0-0.4,0.1-0.9,0.3-1.2c0.2-0.4,0.6-0.6,1-0.8c0.4-0.1,0.9-0.1,1.3,0c5.3-0.4,7.1-3.2,8.4-7.9c0.7-2.8,2.1-5.5,4-7.7
	c1.9-2.3,4.3-4.1,7-5.4c0.4-0.2,0.7-0.5,1-0.8c0.3-0.4,0.4-0.8,0.5-1.2l1.1-10.4l8.2,7c0.4,0.3,0.9,0.6,1.4,0.6c0.5,0.1,1,0,1.5-0.2
	c1.6-0.7,3.3-1.2,4.9-1.7c1.4,1.3,3,2.4,4.8,3.3c-0.3,0.3-0.5,0.7-0.6,1.1c-0.1,0.4-0.1,0.8,0,1.2c0.1,0.6,0.5,1.1,0.9,1.5
	c0.5,0.4,1.1,0.6,1.7,0.6c0.2,0,0.4,0,0.6,0c4.2-0.9,8.4-1.1,12.7-0.6c0.4,0,0.7,0,1-0.1c0.3-0.1,0.7-0.2,0.9-0.4
	c0.3-0.2,0.5-0.5,0.7-0.8s0.3-0.6,0.3-1c0.1-0.6,0-1.1-0.3-1.6c1.6-0.8,3-1.8,4.3-2.9c7.4,2.4,19.6,8.8,19.6,25.3
	c0,6-2.1,11.9-5.9,16.7C-342.6,310.3-346.5,319.2-348.5,327.3z M-366.2,264.4c-2,0.1-4.1-0.3-6-1c-1.9-0.7-3.7-1.8-5.1-3.2
	c-1.5-1.4-2.6-3.1-3.4-4.9c-0.8-1.8-1.2-3.8-1.2-5.8c0-2,0.4-4,1.2-5.8c0.8-1.8,2-3.5,3.4-4.9c1.5-1.4,3.2-2.5,5.1-3.2
	c1.9-0.7,3.9-1.1,6-1c2-0.1,4.1,0.3,6,1c1.9,0.7,3.7,1.8,5.1,3.2c1.5,1.4,2.6,3.1,3.4,4.9c0.8,1.8,1.2,3.8,1.2,5.8
	c0,2-0.4,4-1.2,5.8c-0.8,1.8-2,3.5-3.4,4.9c-1.5,1.4-3.2,2.5-5.1,3.2C-362.2,264.1-364.2,264.5-366.2,264.4z"/>
<path class="st1" d="M-398.8,280.1c-0.7,0-1.4,0.3-1.9,0.8c-0.5,0.5-0.8,1.2-0.8,1.9c0,0.7,0.3,1.4,0.8,1.9c0.3,0.2,0.5,0.4,0.9,0.6
	c0.3,0.1,0.7,0.2,1,0.2c0.7,0,1.4-0.3,1.9-0.8c0.5-0.5,0.8-1.2,0.8-1.9c0-0.7-0.3-1.4-0.8-1.9C-397.4,280.3-398.1,280.1-398.8,280.1
	z"/>
<path class="st1" d="M-366.4,245.4c1.5,0.2,3,0.6,4.3,1.4l0.3,0.2l1.6-3.3l-0.2-0.1c-1.3-0.8-2.7-1.2-4.2-1.4v-2.8h-3.2v2.9
	c-2.6,0.5-4.1,2.1-4.1,4.2c0,3.1,2.9,3.8,4.9,4.4c1.3,0.4,2.4,0.6,2.4,1.4c0,0.1,0,0.2-0.1,0.3c-0.1,0.1-0.1,0.2-0.2,0.2
	c-0.3,0.2-0.7,0.3-1.1,0.2c-1.8-0.2-3.5-0.8-4.8-2l-0.3-0.3l-1.7,3.3l0.2,0.2c1.4,1.1,3.1,1.8,4.9,2.1v3h3.2v-3
	c2.7-0.5,4.3-2.1,4.3-4.4c0-3.1-2.9-3.9-4.9-4.5c-1.3-0.4-2.4-0.7-2.4-1.4c0-0.1,0-0.2,0.1-0.3c0-0.1,0.1-0.1,0.2-0.2
	C-367.1,245.4-366.8,245.4-366.4,245.4z"/>
</svg>
