<svg width="107" height="104" viewBox="0 0 107 104" fill="none" xmlns="http://www.w3.org/2000/svg">
<path d="M59.7561 35.3915C57.7087 35.4529 55.6697 35.1124 53.7597 34.3904C51.8498 33.6683 50.108 32.5793 48.6376 31.188C47.1671 29.7967 45.9981 28.1314 45.1997 26.2909C44.4014 24.4505 43.99 22.4723 43.99 20.4737C43.99 18.4752 44.4014 16.497 45.1997 14.6566C45.9981 12.8161 47.1671 11.1508 48.6376 9.75949C50.108 8.36819 51.8498 7.27921 53.7597 6.55714C55.6697 5.83507 57.7087 5.49461 59.7561 5.55599C61.8034 5.49461 63.8425 5.83507 65.7524 6.55714C67.6623 7.27921 69.4041 8.36819 70.8746 9.75949C72.345 11.1508 73.514 12.8161 74.3124 14.6566C75.1107 16.497 75.5221 18.4752 75.5221 20.4737C75.5221 22.4723 75.1107 24.4505 74.3124 26.2909C73.514 28.1314 72.345 29.7967 70.8746 31.188C69.4041 32.5793 67.6623 33.6683 65.7524 34.3904C63.8425 35.1124 61.8034 35.4529 59.7561 35.3915Z" fill="#00E3C2"/>
<path d="M81.5614 51.1615C81.7345 51.4713 81.8933 51.767 82.0376 52.0767C82.2606 52.5189 82.6056 52.8916 83.0339 53.1528C83.4622 53.414 83.9568 53.5533 84.4619 53.5551C84.8658 53.5552 85.2648 53.4687 85.6307 53.3017C85.9614 53.1598 86.2595 52.9546 86.5074 52.6982C86.7553 52.4419 86.9478 52.1396 87.0737 51.8092C87.1914 51.4852 87.2418 51.1415 87.222 50.7982C87.2022 50.455 87.1125 50.119 86.9583 49.8099C86.7707 49.4157 86.5687 49.0214 86.3522 48.6413C86.006 48.0359 85.4313 47.5864 84.7505 47.3882C84.4116 47.2892 84.056 47.2568 83.7042 47.2931C83.3524 47.3294 83.0115 47.4334 82.7013 47.5994C82.0735 47.932 81.6064 48.494 81.4026 49.1622C81.21 49.8326 81.2928 50.5498 81.6335 51.1615H81.5614Z" fill="#060F26"/>
<path d="M89.0795 56.9061C89.0335 56.564 88.9183 56.2342 88.7405 55.9359C88.5628 55.6376 88.3261 55.3768 88.0441 55.1685C87.7622 54.9602 87.4406 54.8086 87.0982 54.7226C86.7557 54.6366 86.3991 54.6178 86.0492 54.6674C85.3455 54.7618 84.7088 55.1246 84.2788 55.6762C83.8487 56.2278 83.6602 56.9232 83.7547 57.6101C84.1113 60.0911 83.9513 62.6168 83.2844 65.036C82.6174 67.4553 81.4571 69.7185 79.8729 71.6901C79.4431 72.2439 79.2522 72.9398 79.3412 73.6291C79.4302 74.3184 79.7919 74.9464 80.3491 75.379C80.8214 75.7322 81.3991 75.9251 81.9942 75.9281C82.4062 75.9314 82.8134 75.8416 83.1839 75.6658C83.5545 75.4899 83.8782 75.2327 84.1299 74.9144C86.1535 72.3916 87.6348 69.4965 88.4853 66.4023C89.3357 63.3081 89.5378 60.0783 89.0795 56.9061Z" fill="#060F26"/>
<path d="M104.824 55.3004C104.174 54.6566 103.398 54.1458 102.544 53.7976C101.689 53.4495 100.771 53.2711 99.8452 53.2729C99.0699 53.2746 98.3001 53.3982 97.5651 53.639C96.3661 47.0827 92.9095 41.1221 87.7669 36.743C84.5453 34.0256 80.8503 31.8939 76.8574 30.4493C78.6765 27.4994 79.6604 24.1313 79.7084 20.6889C79.7564 17.2466 78.8669 13.8535 77.1308 10.8565C75.3946 7.85947 72.8741 5.36591 69.8268 3.63063C66.7794 1.89536 63.3146 0.980597 59.7862 0.97983C56.2791 0.969212 52.8315 1.86382 49.7931 3.57288C46.7547 5.28195 44.2336 7.74468 42.4855 10.7113C40.7374 13.6779 39.8246 17.0428 39.8396 20.4647C39.8545 23.8867 40.7968 27.2439 42.5707 30.1958C41.8203 30.4352 41.1276 30.6604 40.5793 30.8857L29.6699 21.6493C29.2935 21.326 28.8322 21.1114 28.3378 21.0297C27.8434 20.948 27.3354 21.0023 26.8709 21.1865C26.4063 21.3707 26.0036 21.6776 25.7078 22.0727C25.4121 22.4678 25.235 22.9355 25.1964 23.4233L23.7534 37.5033C20.6973 39.1392 18.0187 41.3708 15.8838 44.0594C13.7489 46.748 12.2033 49.8362 11.3432 53.1321C10.2898 56.9478 9.74143 56.99 7.72117 57.159C6.49514 57.159 5.28614 57.4391 4.19106 57.977C3.09598 58.5149 2.14525 59.2956 1.41505 60.2566C0.789617 61.2872 0.417254 62.4451 0.327125 63.6396C0.236997 64.8341 0.43155 66.0328 0.895549 67.1417L3.44975 74.8857C4.73406 78.814 7.1728 79.6306 8.99103 79.6306H11.1989C16.7835 86.6706 22.0217 88.4869 28.7319 90.1343C28.5443 92.2745 28.2557 94.9356 27.8228 98.2584H22.6423C21.9625 98.307 21.3268 98.6048 20.8628 99.0919C20.3989 99.579 20.1409 100.219 20.1409 100.884C20.1409 101.549 20.3989 102.19 20.8628 102.677C21.3268 103.164 21.9625 103.462 22.6423 103.51H46.0629C46.4329 103.537 46.8045 103.488 47.1545 103.368C47.5045 103.249 47.8254 103.059 48.0971 102.813C48.3689 102.567 48.5856 102.268 48.7339 101.936C48.8821 101.604 48.9586 101.246 48.9586 100.884C48.9586 100.522 48.8821 100.164 48.7339 99.8325C48.5856 99.5006 48.3689 99.2022 48.0971 98.9558C47.8254 98.7093 47.5045 98.5202 47.1545 98.4002C46.8045 98.2803 46.4329 98.232 46.0629 98.2584H45.9763L47.0297 94.7525C52.6164 95.4387 58.2865 95.061 63.7257 93.6402V93.8233C64.0629 96.1553 64.2268 98.5081 64.2164 100.863C64.2067 101.214 64.2694 101.564 64.4009 101.89C64.5324 102.217 64.7298 102.515 64.9816 102.766C65.2333 103.017 65.5342 103.216 65.8663 103.351C66.1984 103.486 66.555 103.555 66.9149 103.553H87.2474C87.9592 103.553 88.6419 103.277 89.1453 102.785C89.6487 102.294 89.9314 101.628 89.9314 100.934C89.9314 100.239 89.6487 99.573 89.1453 99.0818C88.6419 98.5907 87.9592 98.3148 87.2474 98.3148H83.0625C85.1405 90.4863 88.7337 83.1506 91.1436 80.1375C95.7026 74.445 98.1721 67.4246 98.1568 60.2002C98.1549 59.9839 98.1967 59.7693 98.2798 59.5688C98.3629 59.3682 98.4856 59.1855 98.6411 59.0313C98.7965 58.877 98.9816 58.7541 99.1857 58.6696C99.3898 58.5851 99.609 58.5407 99.8307 58.5388C100.052 58.5407 100.272 58.5851 100.476 58.6696C100.68 58.7541 100.865 58.877 101.02 59.0313C101.176 59.1855 101.299 59.3682 101.382 59.5688C101.465 59.7693 101.507 59.9839 101.505 60.2002C101.506 60.6419 101.33 61.0665 101.014 61.383C100.51 61.8765 100.227 62.5448 100.227 63.2415C100.227 63.9383 100.51 64.6066 101.014 65.1001C101.262 65.3431 101.556 65.5355 101.881 65.666C102.205 65.7966 102.553 65.8626 102.904 65.8604C103.259 65.8603 103.609 65.7919 103.936 65.6589C104.263 65.526 104.56 65.3313 104.809 65.086C106.129 63.7861 106.87 62.0302 106.87 60.2002C106.87 58.3703 106.129 56.6144 104.809 55.3145L104.824 55.3004ZM77.5357 98.3007H69.5268C69.4258 96.4985 69.2237 94.7666 69.0361 93.2178C68.9063 92.1337 68.7908 91.0917 68.7187 90.1625C68.6959 89.7754 68.5858 89.398 68.3962 89.0572C68.2066 88.7165 67.9422 88.4208 67.622 88.1913C67.2962 87.9693 66.9248 87.8191 66.5336 87.751C66.1424 87.6829 65.7407 87.6986 65.3564 87.797C57.3042 89.9653 51.4166 90.3877 45.6732 89.205C45.0112 89.072 44.3221 89.1863 43.7422 89.5252C43.1623 89.8642 42.734 90.4031 42.5418 91.0354L40.3484 98.2725H33.3208C33.8547 93.95 34.1866 90.6693 34.3309 88.2617C34.3597 87.6516 34.1715 87.0505 33.798 86.5604C33.4246 86.0702 32.8889 85.7212 32.2818 85.5724C24.7202 83.7701 20.1602 82.7564 14.7921 75.463C14.5397 75.131 14.2112 74.8613 13.8328 74.6755C13.4544 74.4897 13.0367 74.3929 12.6131 74.3929H9.16421C8.92467 74.0655 8.7486 73.698 8.64472 73.3087L6.09052 65.5506C5.80726 65.2245 5.64035 64.8173 5.61495 64.3906C5.58955 63.9638 5.70705 63.5405 5.94971 63.1845C6.19237 62.8286 6.54705 62.5593 6.96028 62.4172C7.3735 62.2751 7.82289 62.2679 8.24067 62.3967C13.5222 61.9602 15.3116 59.1865 16.6103 54.526C17.3272 51.69 18.6784 49.044 20.5671 46.7777C22.4557 44.5113 24.835 42.6809 27.5342 41.4175C27.9316 41.2198 28.2719 40.9281 28.524 40.569C28.776 40.2099 28.9319 39.7949 28.9772 39.3619L30.0595 28.9708L38.2993 35.9404C38.6849 36.2789 39.1632 36.5004 39.6757 36.5779C40.1883 36.6554 40.7128 36.5856 41.1854 36.3769C42.7953 35.7203 44.4432 35.1561 46.1206 34.6873C47.5513 35.9981 49.17 37.0985 50.9259 37.9539C50.6495 38.2587 50.4506 38.6228 50.3453 39.0167C50.24 39.4105 50.2313 39.823 50.3198 40.2207C50.4511 40.8057 50.7829 41.3296 51.2603 41.7058C51.7378 42.0821 52.3325 42.2883 52.9462 42.2905C53.1335 42.3051 53.3217 42.3051 53.509 42.2905C57.6677 41.3932 61.9538 41.2027 66.1789 41.7273C66.5289 41.7769 66.8855 41.7581 67.2279 41.6721C67.5704 41.5861 67.892 41.4345 68.1739 41.2262C68.4558 41.0179 68.6926 40.7571 68.8703 40.4588C69.048 40.1605 69.1633 39.8307 69.2093 39.4886C69.2947 38.9248 69.1829 38.3494 68.8919 37.8553C70.4605 37.0633 71.916 36.0739 73.221 34.9126C80.6671 37.2921 92.8175 43.7126 92.8031 60.2566C92.7926 66.3019 90.71 72.1702 86.8866 76.9273C83.4089 81.2921 79.4982 90.2329 77.5357 98.3007ZM59.7574 35.3913C57.7101 35.4527 55.671 35.1123 53.7611 34.3902C51.8511 33.6681 50.1093 32.5791 48.6389 31.1878C47.1685 29.7965 45.9994 28.1312 45.2011 26.2908C44.4027 24.4503 43.9913 22.4721 43.9913 20.4736C43.9913 18.475 44.4027 16.4969 45.2011 14.6564C45.9994 12.8159 47.1685 11.1506 48.6389 9.75933C50.1093 8.36802 51.8511 7.27904 53.7611 6.55697C55.671 5.8349 57.7101 5.49445 59.7574 5.55582C61.8047 5.49445 63.8438 5.8349 65.7537 6.55697C67.6636 7.27904 69.4054 8.36802 70.8759 9.75933C72.3463 11.1506 73.5153 12.8159 74.3137 14.6564C75.112 16.4969 75.5234 18.475 75.5234 20.4736C75.5234 22.4721 75.112 24.4503 74.3137 26.2908C73.5153 28.1312 72.3463 29.7965 70.8759 31.1878C69.4054 32.5791 67.6636 33.6681 65.7537 34.3902C63.8438 35.1123 61.8047 35.4527 59.7574 35.3913Z" fill="#060F26"/>
<path d="M27.2153 51.0627C26.5034 51.0627 25.8208 51.3386 25.3174 51.8298C24.814 52.3209 24.5312 52.9871 24.5312 53.6816C24.5323 54.3767 24.8119 55.0437 25.3105 55.5402C25.5606 55.7836 25.8578 55.9761 26.1848 56.1066C26.5118 56.2371 26.862 56.303 27.2153 56.3005C27.9272 56.3005 28.6099 56.0246 29.1132 55.5334C29.6166 55.0423 29.8994 54.3762 29.8994 53.6816C29.8994 52.9871 29.6166 52.3209 29.1132 51.8298C28.6099 51.3386 27.9272 51.0627 27.2153 51.0627Z" fill="#060F26"/>
<path d="M59.5695 16.3844C61.1016 16.5354 62.5802 17.0163 63.8986 17.7924L64.1872 17.9473L65.8035 14.6244L65.587 14.4836C64.3038 13.7324 62.8731 13.2527 61.3877 13.0756V10.2596H58.1409V13.1601C55.5434 13.6529 54.0138 15.244 54.0138 17.3841C54.0138 20.4536 56.8999 21.1998 58.8769 21.7348C60.19 22.0868 61.3156 22.3825 61.3156 23.1428C61.3191 23.2575 61.29 23.3709 61.2314 23.4703C61.1728 23.5697 61.087 23.6513 60.9837 23.706C60.6479 23.8833 60.2682 23.9661 59.887 23.9454C58.1026 23.7927 56.412 23.0985 55.0528 21.9601L54.7498 21.7067L53.0614 25.0296L53.249 25.1844C54.6663 26.2759 56.3447 26.9978 58.1265 27.2824V30.2955H61.3733V27.2964C64.1151 26.8459 65.7024 25.2408 65.7024 22.9316C65.7024 19.8059 62.8164 19.0174 60.7961 18.4401C59.5118 18.0741 58.4007 17.7784 58.4007 17.0321C58.3949 16.9442 58.4149 16.8564 58.4583 16.7791C58.5018 16.7019 58.5669 16.6382 58.646 16.5956C58.9268 16.4406 59.2473 16.3673 59.5695 16.3844Z" fill="#060F26"/>
</svg>
